<?xml version="1.0" encoding="UTF-8" standalone="no"?>
<svg
   xmlns:dc="http://purl.org/dc/elements/1.1/"
   xmlns:cc="http://creativecommons.org/ns#"
   xmlns:rdf="http://www.w3.org/1999/02/22-rdf-syntax-ns#"
   xmlns:svg="http://www.w3.org/2000/svg"
   xmlns="http://www.w3.org/2000/svg"
   xmlns:sodipodi="http://sodipodi.sourceforge.net/DTD/sodipodi-0.dtd"
   xmlns:inkscape="http://www.inkscape.org/namespaces/inkscape"
   width="5.2916694mm"
   height="5.291666mm"
   viewBox="0 0 5.2916694 5.2916661"
   version="1.1"
   id="svg8"
   inkscape:version="1.0.1 (1.0.1+r74)"
   sodipodi:docname="logout.svg">
  <defs
     id="defs2" />
  <sodipodi:namedview
     id="base"
     pagecolor="#ffffff"
     bordercolor="#666666"
     borderopacity="1.0"
     inkscape:pageopacity="0.0"
     inkscape:pageshadow="2"
     inkscape:zoom="22.4"
     inkscape:cx="4.9251031"
     inkscape:cy="14.804656"
     inkscape:document-units="mm"
     inkscape:current-layer="layer1"
     inkscape:document-rotation="0"
     showgrid="false"
     fit-margin-top="0"
     fit-margin-left="0"
     fit-margin-right="0"
     fit-margin-bottom="0"
     inkscape:window-width="1848"
     inkscape:window-height="1016"
     inkscape:window-x="72"
     inkscape:window-y="27"
     inkscape:window-maximized="1" />
  <metadata
     id="metadata5">
    <rdf:RDF>
      <cc:Work
         rdf:about="">
        <dc:format>image/svg+xml</dc:format>
        <dc:type
           rdf:resource="http://purl.org/dc/dcmitype/StillImage" />
        <dc:title />
      </cc:Work>
    </rdf:RDF>
  </metadata>
  <g
     inkscape:label="Layer 1"
     inkscape:groupmode="layer"
     id="layer1"
     transform="translate(0.52914547,0.5291035)">
    <path
       style="fill:#2d5fff;fill-opacity:1;stroke:#000000;stroke-width:0;stroke-linecap:butt;stroke-linejoin:miter;stroke-miterlimit:4;stroke-dasharray:none;stroke-opacity:1"
       d="m 2.9810301,2.7151085 c 0,0 0.03704,-0.1880775 0.2253585,-0.1877602 0.188319,3.04e-4 0.2426956,0.165667 0.2426956,0.165667 l 0.00573,1.4518552 c 0,0 -0.054186,0.162843 -0.1798524,0.1752016 -0.1256651,0.0124 -1.1578894,0.013413 -1.1578894,0.013413 L 2.116639,4.62749 c 0,0 -0.098172,0.175003 -0.339053,0.1266126 -0.2408797,-0.0484 -2.14450229,-0.4539146 -2.14450229,-0.4539146 0,0 -0.16233796,-0.030933 -0.16222862,-0.1470084 1.1066e-4,-0.1160793 0.008133,-4.53500323 0.008133,-4.53500323 0,0 -0.0076,-0.13539118 0.14474351,-0.13867249 0.15233141,-0.003333 3.6306836,-0.008533 3.6306836,-0.008533 0,0 0.185363,-0.009067 0.1912602,0.17369228 0.00587,0.18277756 0.00333,1.42453544 0.00333,1.42453544 0,0 -0.091066,0.1839562 -0.2205572,0.1826962 C 3.0989766,1.2506281 2.9783715,1.0893184 2.9783715,1.0893184 l 0.00693,-1.15248776 -1.6273968,-0.0118666 0.6452705,0.22746929 c 0,0 0.1088787,0.0337598 0.1141719,0.13447918 0.0052,0.10073272 0.02028,3.56336239 0.02028,3.56336239 l 0.842468,-0.00173 z"
       id="path847" />
    <path
       style="fill:#2d5fff;fill-opacity:1;stroke:#000000;stroke-width:0;stroke-linecap:butt;stroke-linejoin:miter;stroke-miterlimit:4;stroke-dasharray:none;stroke-opacity:1"
       d="m 2.5357424,1.8830882 c 0,0 0.033626,-0.219792 0.1932256,-0.22042 0.1595886,-6e-4 1.2199872,-0.00507 1.2199872,-0.00507 L 3.648347,1.3466221 c 0,0 -0.078786,-0.2077227 0.061839,-0.2996861 C 3.8508122,0.9549765 3.996233,1.022363 3.996233,1.022363 l 0.7662904,0.766218 -0.00693,0.1937841 -0.7819355,0.7857353 c 0,0 -0.1664125,0.0504 -0.2725885,-0.06352 -0.106172,-0.1139327 -0.0388,-0.2722584 -0.0388,-0.2722584 L 3.9592378,2.1410187 2.700279,2.1174588 c 0,0 -0.1429356,-0.03036 -0.1645473,-0.2344319 z"
       id="path849" />
    <rect
       style="opacity:0.996;fill:#ffffff;fill-opacity:1;stroke:#2d5fff;stroke-width:0;stroke-linecap:round;stroke-linejoin:round;stroke-miterlimit:4;stroke-dasharray:none;paint-order:stroke markers fill"
       id="rect1471"
       width="1.7540175"
       height="3.8529191"
       x="-0.090497904"
       y="-0.083609566"
       ry="0.48786038"
       transform="matrix(0.96665258,0.25609137,-0.00952313,0.99995465,0,0)" />
  </g>
</svg>
