<?xml version="1.0" encoding="UTF-8" standalone="no"?>
<svg
   xmlns:dc="http://purl.org/dc/elements/1.1/"
   xmlns:cc="http://creativecommons.org/ns#"
   xmlns:rdf="http://www.w3.org/1999/02/22-rdf-syntax-ns#"
   xmlns:svg="http://www.w3.org/2000/svg"
   xmlns="http://www.w3.org/2000/svg"
   xmlns:sodipodi="http://sodipodi.sourceforge.net/DTD/sodipodi-0.dtd"
   xmlns:inkscape="http://www.inkscape.org/namespaces/inkscape"
   width="55.932304mm"
   height="59.509464mm"
   viewBox="0 0 55.932304 59.509464"
   version="1.1"
   id="svg8"
   inkscape:version="1.0.1 (1.0.1+r74)"
   sodipodi:docname="admin.svg">
  <defs
     id="defs2" />
  <sodipodi:namedview
     id="base"
     pagecolor="#ffffff"
     bordercolor="#666666"
     borderopacity="1.0"
     inkscape:pageopacity="0.0"
     inkscape:pageshadow="2"
     inkscape:zoom="1.4"
     inkscape:cx="208.67409"
     inkscape:cy="74.882612"
     inkscape:document-units="mm"
     inkscape:current-layer="layer1"
     inkscape:document-rotation="0"
     showgrid="false"
     fit-margin-top="0"
     fit-margin-left="0"
     fit-margin-right="0"
     fit-margin-bottom="0"
     inkscape:window-width="1848"
     inkscape:window-height="1016"
     inkscape:window-x="72"
     inkscape:window-y="27"
     inkscape:window-maximized="1" />
  <metadata
     id="metadata5">
    <rdf:RDF>
      <cc:Work
         rdf:about="">
        <dc:format>image/svg+xml</dc:format>
        <dc:type
           rdf:resource="http://purl.org/dc/dcmitype/StillImage" />
        <dc:title></dc:title>
      </cc:Work>
    </rdf:RDF>
  </metadata>
  <g
     inkscape:label="Layer 1"
     inkscape:groupmode="layer"
     id="layer1">
    <path
       style="fill:#fffffd;fill-opacity:1;stroke:#000000;stroke-width:0;stroke-linecap:butt;stroke-linejoin:miter;stroke-miterlimit:4;stroke-dasharray:none;stroke-opacity:1"
       d="m 10.350595,25.940786 c 0,0 -0.7366027,-0.5378 -1.0088577,-0.221717 -0.272256,0.316083 -2.0443988,2.025524 -2.0959658,2.044572 -0.051567,0.01905 -0.3442518,0.277331 -0.8393007,-0.09184 -0.4950491,-0.369181 -3.9664565,-3.87254 -3.9664565,-3.87254 0,0 -0.4980779,-0.568417 0.049281,-1.054099 0.5473591,-0.485683 2.0393474,-1.900742 2.0393474,-1.900742 0,0 0.2570465,-0.209643 0.011954,-0.534066 C 4.2955054,19.98593 3.692524,18.52221 3.692524,18.52221 L 0.60978383,18.46032 c 0,0 -0.5599965,0.06241 -0.5953099,-0.73606 -0.035313,-0.798473 0.0051,-5.415054 0.0051,-5.415054 0,0 -0.058527,-0.66142 0.8739251,-0.653951 0.93245167,0.0075 2.84162257,0.01364 2.84162257,0.01364 L 4.6411431,9.4989145 2.4443678,7.3526241 c 0,0 -0.3478946,-0.5180679 0.096227,-0.9773044 C 2.9847167,5.9160832 6.1777586,2.746595 6.1777586,2.746595 c 0,0 0.6486731,-0.6431194 1.1946858,-0.083941 0.5460124,0.5591781 2.1462669,2.1974868 2.1462669,2.1974868 L 11.728537,3.9513366 11.593045,0.67437106 c 0,0 0.0057,-0.63662078 0.922757,-0.65968196 0.917024,-0.02306119 5.165995,-0.01207165 5.165995,-0.01207165 0,0 0.832825,0.03105921 0.888356,1.08894455 0.05553,1.0578853 -0.05151,2.8997579 -0.05151,2.8997579 l 2.060464,0.7997714 2.035371,-2.0687782 c 0,0 0.745942,-0.6042653 1.396622,0.051896 0.650682,0.6561608 3.51604,3.441062 3.51604,3.441062 0,0 0.698254,0.7517731 -0.05878,1.4550398 -0.757031,0.7032667 -2.07603,1.967756 -2.07603,1.967756 l 0.837116,1.6683221 c 0,0 -3.542517,-0.007 -4.183388,-0.01731 -0.418624,-0.0068 -1.677525,-2.0192463 -1.677525,-2.0192463 0,0 -0.882995,-1.1648615 -3.52066,-1.884027 -2.49096,-0.6791659 -6.00311,0.1520997 -8.0656257,2.9552033 -2.062517,2.803104 -1.6399682,5.829877 -1.6399682,5.829877 0,0 0.217009,2.070847 1.6519082,3.79416 1.4348987,1.723313 1.9759137,1.741838 1.9759137,1.741838 l -0.17653,1.543258 z"
       id="path861"
       sodipodi:nodetypes="cssccscsccscccccscscccscscccscsccscsscsccc" />
    <path
       style="fill:#fffffd;fill-opacity:1;stroke:#000000;stroke-width:0;stroke-linecap:butt;stroke-linejoin:miter;stroke-miterlimit:4;stroke-dasharray:none;stroke-opacity:1"
       d="m 11.298984,19.614771 c 0,0 0.880437,-2.466361 3.368664,-5.070937 2.544799,-2.663793 5.012351,-2.738022 5.012351,-2.738022 0,0 -0.37095,-1.181899 -2.13221,-1.8936411 -2.097904,-0.8477835 -3.508163,-0.8846156 -5.684415,0.3076951 -2.3574657,1.291593 -2.7929367,4.387769 -2.5610327,5.844159 0.231905,1.456391 1.0066237,2.606065 1.9966427,3.550746 z"
       id="path863"
       sodipodi:nodetypes="cscsssc" />
    <path
       style="fill:#fffffd;fill-opacity:1;stroke:#000000;stroke-width:0;stroke-linecap:butt;stroke-linejoin:miter;stroke-miterlimit:4;stroke-dasharray:none;stroke-opacity:1"
       d="m 36.500716,20.916206 6.031955,-0.05993 c 0,0 0.876816,-0.03912 0.884087,1.211483 0.0073,1.250606 -0.02702,2.904762 -0.02702,2.904762 l 2.272839,0.992928 2.32736,-2.364655 1.172911,0.0357 3.95206,3.979785 0.04166,1.204923 -2.329264,2.222384 0.967348,2.284232 3.189253,0.05703 c 0,0 0.901018,-0.131786 0.936432,0.876289 0.03541,1.008074 -0.01905,5.802958 -0.01905,5.802958 0,0 -0.0038,0.607542 -0.66957,0.627222 -0.665758,0.01968 -3.231454,0.0137 -3.231454,0.0137 l -1.162532,2.401626 2.324843,2.499251 0.01267,0.901015 -3.894148,3.991618 c 0,0 -0.883595,0.670361 -1.176174,-0.0066 -0.292578,-0.676987 -1.314494,-3.005791 -1.842256,-3.81494 -0.527762,-0.809148 -2.005447,-2.372428 -2.005447,-2.372428 0,0 2.053421,-1.467602 3.139176,-3.663217 1.085755,-2.195616 0.722214,-4.984324 0.185457,-6.740113 -0.536758,-1.755788 -3.147052,-3.824385 -3.147052,-3.824385 0,0 -1.050245,-0.68245 -2.802001,-1.255646 -1.751756,-0.573196 -4.851194,0.276339 -4.851194,0.276339 0,0 0.420116,-2.565025 0.325657,-3.78517 -0.09446,-1.220144 -0.598752,-4.436608 -0.60656,-4.396143 z"
       id="path867" />
    <path
       style="fill:#fffffd;fill-opacity:1;stroke:#000000;stroke-width:0;stroke-linecap:butt;stroke-linejoin:miter;stroke-miterlimit:4;stroke-dasharray:none;stroke-opacity:1"
       d="m 33.563452,38.301799 c 0,0 1.304391,-2.374445 2.143628,-4.307139 0.839237,-1.932694 0.544814,-2.300928 0.544814,-2.300928 0,0 2.367182,-1.960996 5.825506,-0.482142 3.458321,1.478851 4.138314,5.035518 3.911986,6.866022 -0.226324,1.830504 -1.810181,3.463975 -2.363197,3.975743 -0.553019,0.511768 -1.131173,0.512207 -1.131173,0.512207 0,0 -0.354621,-0.443616 -2.833153,-2.167586 -2.47853,-1.723972 -6.098411,-2.096177 -6.098411,-2.096177 z"
       id="path869" />
    <path
       style="fill:#fffffd;fill-opacity:1;stroke:#000000;stroke-width:0;stroke-linecap:butt;stroke-linejoin:miter;stroke-miterlimit:4;stroke-dasharray:none;stroke-opacity:1"
       d="m 41.252085,59.509462 2.653689,-0.02765 c 0,0 2.265595,-0.310695 2.720491,-2.390931 0.454895,-2.080236 -1.632479,-5.976027 -3.463915,-9.32103 -1.831432,-3.345003 -6.624502,-5.306541 -8.763695,-6.200407 -2.139194,-0.893866 -2.992279,-0.510786 -2.992279,-0.510786 0,0 -1.86954,2.438831 -5.931956,3.597164 -4.062412,1.158332 -8.501836,-2.573033 -8.501836,-2.573033 L 15.8432,41.026803 c 0,0 -7.8156043,1.257414 -10.8705964,5.694998 -3.0549922,4.437581 -4.10088477,8.602839 -4.10088477,8.602839 0,0 -0.6353156,4.064532 2.27385957,4.123791 2.9091755,0.05926 38.1065066,0.06103 38.1065066,0.06103 z"
       id="path871" />
    <path
       style="fill:#fffffd;fill-opacity:1;stroke:#000000;stroke-width:0;stroke-linecap:butt;stroke-linejoin:miter;stroke-miterlimit:4;stroke-dasharray:none;stroke-opacity:1"
       d="m 16.106992,36.204658 c 0,0 1.934596,3.481031 4.731067,4.778817 2.796471,1.297789 5.543853,0.345393 7.789692,-1.442011 2.245839,-1.787403 4.599996,-8.146179 4.599996,-8.146179 0,0 0.908285,-3.720468 0.726217,-5.591232 -0.182067,-1.870765 -0.175728,-4.889386 -2.586069,-7.995696 -2.410344,-3.10631 -5.565756,-3.38384 -5.565756,-3.38384 0,0 -4.487035,-1.121682 -7.698008,1.459532 -3.210973,2.581214 -4.209788,4.717784 -4.543858,7.182754 -0.334071,2.464971 -0.378847,6.441003 1.02741,9.73235 1.406256,3.291348 1.519309,3.405505 1.519309,3.405505 z"
       id="path873" />
  </g>
</svg>
